# xmcd CD database file
# Copyright (C) 1993-1998 Ti Kan
#
# Track frame offsets:
#  150
#  16335
#  47715
#  88015
#  123430
#  147892
#  177027
#  197732
#  228680
#  253842
#  283720
#
# Disc length: 4104 seconds
#
# Revision: 1
# Processed by: cddbd v1.4b41PL1 Copyright (c) Steve Scherf et al.
# Submitted via: CDWizzard Release:4.35
#
DISCID=9b10060b
DTITLE=Frank Dell - The Best of Frank Dell
DYEAR=1900
DGENRE=
TTITLE0=Pledging My Love
TTITLE1=Taxi
TTITLE2=I Stand Accused
TTITLE3=Tell Me Love
TTITLE4=Give It Up
TTITLE5=Sweet Love Songs
TTITLE6=Cocaine
TTITLE7=Daily Lovin'
TTITLE8=Sugar Creek
TTITLE9=Welcome Home
TTITLE10=I'll Be Ready
EXTD=
EXTT0=
EXTT1=
EXTT2=
EXTT3=
EXTT4=
EXTT5=
EXTT6=
EXTT7=
EXTT8=
EXTT9=
EXTT10=
PLAYORDER=
